# xmcd
#
# Track frame offsets:
#	150
#	15681
#	29617
#	43551
#	56527
#	74593
#	91204
#	105115
#	116857
#	134300
#	150182
#	166373
#	177067
#	190664
#	201082
#	217806
#	227305
#	239108
#	252411
#	270023
#	281095
#	296873
#	310660
#	328348
#
# Disc length: 4525 seconds
#
# Revision: 0
# Processed by: cddbd v1.5.2PL0 Copyright (c) Steve Scherf et al.
# Submitted via: audiograbber 1.83.01
#
DISCID=4f11ab18
DTITLE=VALENTIN ELIZALDE - EXITOS
DYEAR=2006
DGENRE=BANDA
TTITLE0=INTROMIX DJ MAC
TTITLE1=VENCEDOR
TTITLE2=A MIS ENEMIGOS
TTITLE3=TE QUIERO ASI
TTITLE4=EN ESTA NAVIDAD
TTITLE5=COMO ME DUELE
TTITLE6=VETE CON EL
TTITLE7=VETE YA
TTITLE8=AUNQUE TE ENAMORES
TTITLE9=MI AMANTE
TTITLE10=SOY ASI
TTITLE11=Y SE PARECE A TI
TTITLE12=LA MAS DESEADA
TTITLE13=LA MEDIA VUELTA
TTITLE14=NADA
TTITLE15=Y NO ME LO DAS
TTITLE16=EL ERRANTE
TTITLE17=MI GUSTO ES
TTITLE18=EL PAVIDO NAVIDO
TTITLE19=EL TORO MORO
TTITLE20=POR QUE TE EXTRAÑO
TTITLE21=EL MAS GRANDE
TTITLE22=EL VENADITO
TTITLE23=EL CARRETERO
EXTD=
EXTT0=
EXTT1=
EXTT2=
EXTT3=
EXTT4=
EXTT5=
EXTT6=
EXTT7=
EXTT8=
EXTT9=
EXTT10=
EXTT11=
EXTT12=
EXTT13=
EXTT14=
EXTT15=
EXTT16=
EXTT17=
EXTT18=
EXTT19=
EXTT20=
EXTT21=
EXTT22=
EXTT23=
PLAYORDER=
